# xmcd CD database file
#
# Track frame offsets:
#	183
#	22598
#	41588
#	65940
#	77848
#	95883
#	122400
#	151975
#	176165
#	185938
#	191660
#	225833
#	262380
#
# Disc length: 3770 seconds
#
# Revision: 3
# Processed by: cddbd v1.5.2PL0 Copyright (c) Steve Scherf et al.
# Submitted via: CDex 1.51
#
DISCID=b40eb80d
DTITLE=Marvin Gaye - Live!
DYEAR=1993
DGENRE=Soul
TTITLE0=I Heard It Through The Grapevine
TTITLE1=Come Get To This
TTITLE2=Let's Get It On
TTITLE3=God Is Love
TTITLE4=What's Going On
TTITLE5=Inner City Blues
TTITLE6=Joy
TTITLE7=Ain't Nothing Like The Real Thing
TTITLE8=Haven Must Have Sent You
TTITLE9=If This World Were Mine
TTITLE10=Rockin' After Midnight
TTITLE11=Distant Lover
TTITLE12=Sexual Healing
EXTD=Soul Music YEAR: 1993
EXTT0=
EXTT1=
EXTT2=
EXTT3=
EXTT4=
EXTT5=
EXTT6=
EXTT7=
EXTT8=
EXTT9=
EXTT10=
EXTT11=
EXTT12=
PLAYORDER=
